<svg width="96" height="96" xmlns="http://www.w3.org/2000/svg" xmlns:xlink="http://www.w3.org/1999/xlink" xml:space="preserve" overflow="hidden"><g transform="translate(-592 -312)"><path d="M651.539 381 651.539 367.371 637.789 354.31 624.039 367.372 624.039 381 635.039 381 635.039 369.542 640.539 369.542 640.539 381 651.539 381Z"/><path d="M685.446 328.834 682.166 325.554C681.455 324.827 680.29 324.814 679.563 325.524 679.553 325.534 679.543 325.544 679.533 325.554L676.251 328.837 682.117 334.7 685.4 331.421C686.126 330.783 686.197 329.677 685.559 328.951 685.523 328.91 685.485 328.871 685.446 328.834Z"/><path d="M680.749 336.163 674.837 330.251 651.91 353.223 649.91 359.257 637.832 347.727 637.832 347.727 619.042 365.6 621.123 367.378 637.831 351.509 637.831 351.509 648.955 362.045 649.725 361.761 657.825 359.09ZM656.849 357.473 652.923 358.766 652.23 358.074 653.523 354.147C654.461 353.26 655.935 353.28 656.849 354.193 657.756 355.072 657.778 356.52 656.899 357.427 656.884 357.443 656.869 357.458 656.853 357.473Z"/><path d="M661 388 604 388C602.895 388 602 387.105 602 386 602 384.895 602.895 384 604 384L614 384 614 342 658.874 342 664.862 336 614 336 614 326 604 326C599.584 326.005 596.005 329.584 596 334L596 386C596.005 390.416 599.584 393.995 604 394L667 394 667 354.155 661 360.155ZM602 334C602 332.895 602.895 332 604 332L608 332 608 378 604 378C603.325 378 602.653 378.085 602 378.253Z"/></g></svg>